<?xml version="1.0" encoding="utf-8"?>
<!-- Generator: Adobe Illustrator 15.0.0, SVG Export Plug-In . SVG Version: 6.00 Build 0)  -->
<!DOCTYPE svg PUBLIC "-//W3C//DTD SVG 1.1//EN" "http://www.w3.org/Graphics/SVG/1.1/DTD/svg11.dtd">
<svg version="1.1" id="Layer_1" xmlns="http://www.w3.org/2000/svg" xmlns:xlink="http://www.w3.org/1999/xlink" x="0px" y="0px"
	 width="150px" height="40px" viewBox="0 0 150 40" enable-background="new 0 0 150 40" xml:space="preserve">
<path fill="#FF5A5F" d="M67.55,10.05c0,1.442-1.16,2.603-2.602,2.603c-1.442,0-2.603-1.161-2.603-2.603
	c0-1.441,1.121-2.603,2.603-2.603C66.429,7.487,67.55,8.648,67.55,10.05z M56.82,15.295c0,0.24,0,0.641,0,0.641
	s-1.241-1.602-3.884-1.602c-4.364,0-7.768,3.323-7.768,7.927c0,4.564,3.363,7.929,7.768,7.929c2.683,0,3.884-1.642,3.884-1.642v0.68
	c0,0.321,0.24,0.562,0.561,0.562h3.243V14.735c0,0-2.963,0-3.243,0C57.061,14.735,56.82,15.015,56.82,15.295z M56.82,24.945
	c-0.601,0.881-1.802,1.641-3.244,1.641c-2.562,0-4.524-1.602-4.524-4.324c0-2.722,1.962-4.324,4.524-4.324
	c1.402,0,2.683,0.801,3.244,1.642V24.945z M63.026,14.735h3.844V29.79h-3.844V14.735z M120.443,14.334
	c-2.643,0-3.883,1.602-3.883,1.602V7.487h-3.844V29.79c0,0,2.963,0,3.242,0c0.32,0,0.561-0.28,0.561-0.562v-0.68l0,0
	c0,0,1.242,1.642,3.885,1.642c4.363,0,7.768-3.364,7.768-7.929C128.172,17.698,124.768,14.334,120.443,14.334z M119.803,26.547
	c-1.48,0-2.643-0.762-3.242-1.643V19.54c0.6-0.801,1.881-1.642,3.242-1.642c2.562,0,4.525,1.602,4.525,4.325
	C124.328,24.945,122.365,26.547,119.803,26.547z M110.715,20.861v8.969h-3.844v-8.529c0-2.482-0.801-3.483-2.963-3.483
	c-1.162,0-2.363,0.601-3.123,1.481V29.79h-3.844V14.735h3.043c0.32,0,0.561,0.28,0.561,0.561v0.641
	c1.121-1.161,2.602-1.602,4.084-1.602c1.682,0,3.082,0.48,4.203,1.441C110.193,16.897,110.715,18.338,110.715,20.861z
	 M87.611,14.334c-2.643,0-3.885,1.602-3.885,1.602V7.487h-3.844V29.79c0,0,2.963,0,3.244,0c0.32,0,0.561-0.28,0.561-0.562v-0.68l0,0
	c0,0,1.24,1.642,3.883,1.642c4.365,0,7.77-3.364,7.77-7.929C95.379,17.698,91.975,14.334,87.611,14.334z M86.971,26.547
	c-1.482,0-2.643-0.762-3.244-1.643V19.54c0.602-0.801,1.883-1.642,3.244-1.642c2.562,0,4.523,1.602,4.523,4.325
	C91.494,24.945,89.533,26.547,86.971,26.547z M76.561,14.334c1.16,0,1.762,0.2,1.762,0.2v3.563c0,0-3.204-1.081-5.206,1.201V29.83
	h-3.844V14.735c0,0,2.963,0,3.242,0c0.32,0,0.561,0.28,0.561,0.561v0.641C73.797,15.095,75.359,14.334,76.561,14.334z M36.64,28.428
	c-0.2-0.48-0.4-1-0.601-1.441c-0.32-0.721-0.641-1.4-0.921-2.041l-0.04-0.041c-2.763-6.005-5.726-12.091-8.849-18.098l-0.12-0.24
	c-0.32-0.601-0.641-1.241-0.961-1.882c-0.4-0.721-0.801-1.481-1.441-2.202C22.426,0.881,20.584,0,18.622,0
	c-2.002,0-3.804,0.881-5.125,2.402c-0.601,0.721-1.041,1.481-1.441,2.202c-0.32,0.641-0.641,1.281-0.961,1.882l-0.12,0.24
	c-3.083,6.006-6.086,12.092-8.849,18.098l-0.04,0.08c-0.28,0.641-0.601,1.322-0.921,2.043c-0.2,0.439-0.4,0.92-0.601,1.441
	c-0.521,1.481-0.681,2.883-0.48,4.324c0.44,3.003,2.442,5.525,5.205,6.646C6.33,39.8,7.411,40,8.532,40
	c0.32,0,0.721-0.04,1.041-0.08c1.321-0.16,2.683-0.601,4.004-1.361c1.642-0.921,3.204-2.242,4.965-4.164
	c1.762,1.922,3.363,3.243,4.965,4.164c1.321,0.761,2.683,1.201,4.004,1.361c0.32,0.04,0.721,0.08,1.041,0.08
	c1.121,0,2.242-0.2,3.243-0.641c2.803-1.121,4.765-3.684,5.206-6.646C37.321,31.312,37.161,29.91,36.64,28.428z M18.582,30.511
	c-2.162-2.724-3.563-5.286-4.044-7.448c-0.201-0.92-0.241-1.721-0.12-2.441c0.08-0.641,0.32-1.202,0.641-1.682
	c0.761-1.081,2.042-1.762,3.523-1.762s2.803,0.641,3.523,1.762c0.32,0.48,0.561,1.041,0.641,1.682c0.12,0.721,0.08,1.561-0.12,2.441
	C22.146,25.186,20.744,27.748,18.582,30.511z M34.558,32.393c-0.28,2.082-1.682,3.884-3.644,4.685c-0.961,0.4-2.002,0.521-3.043,0.4
	c-1.001-0.12-2.002-0.44-3.043-1.041c-1.441-0.801-2.883-2.042-4.564-3.884c2.643-3.243,4.244-6.207,4.845-8.85
	c0.28-1.24,0.32-2.361,0.2-3.403c-0.16-1.001-0.521-1.922-1.081-2.723c-1.241-1.802-3.323-2.843-5.646-2.843
	s-4.405,1.081-5.646,2.843c-0.561,0.801-0.921,1.722-1.081,2.723c-0.16,1.042-0.12,2.202,0.2,3.403
	c0.601,2.643,2.242,5.646,4.845,8.89c-1.642,1.842-3.124,3.083-4.565,3.884c-1.041,0.601-2.042,0.921-3.043,1.041
	c-1.081,0.12-2.122-0.04-3.043-0.4c-1.962-0.801-3.363-2.603-3.644-4.685c-0.12-1.001-0.04-2.002,0.36-3.123
	c0.12-0.401,0.32-0.802,0.521-1.282c0.28-0.641,0.601-1.32,0.921-2.002l0.04-0.08c2.763-5.965,5.726-12.051,8.809-17.978l0.12-0.24
	c0.32-0.601,0.641-1.241,0.961-1.842c0.32-0.641,0.681-1.241,1.121-1.762c0.841-0.961,1.962-1.481,3.203-1.481
	s2.362,0.521,3.203,1.481c0.44,0.521,0.801,1.121,1.121,1.762c0.32,0.601,0.641,1.241,0.961,1.842l0.12,0.24
	c3.043,5.966,6.006,12.052,8.769,18.019v0.039c0.321,0.641,0.601,1.361,0.921,2.002c0.2,0.48,0.4,0.881,0.521,1.281
	C34.598,30.351,34.718,31.352,34.558,32.393z"/>
</svg>
