<?xml version="1.0" encoding="utf-8"?>
<!-- Generator: Adobe Illustrator 15.0.0, SVG Export Plug-In . SVG Version: 6.00 Build 0)  -->
<!DOCTYPE svg PUBLIC "-//W3C//DTD SVG 1.1//EN" "http://www.w3.org/Graphics/SVG/1.1/DTD/svg11.dtd">
<svg version="1.1" id="Layer_1" xmlns="http://www.w3.org/2000/svg" xmlns:xlink="http://www.w3.org/1999/xlink" x="0px" y="0px"
	 width="189px" height="40px" viewBox="1582.556 336.748 189 40" enable-background="new 1582.556 336.748 189 40"
	 xml:space="preserve">
<g>
	<path d="M1769.537,363.477c-0.583,0-1.058,0.475-1.058,1.057c0,0.584,0.475,1.057,1.058,1.057s1.058-0.473,1.058-1.057
		C1770.595,363.951,1770.12,363.477,1769.537,363.477z M1769.537,365.422c-0.491,0-0.89-0.398-0.89-0.889
		c0-0.491,0.4-0.889,0.89-0.889c0.491,0,0.892,0.4,0.892,0.889C1770.429,365.023,1770.028,365.422,1769.537,365.422z
		 M1769.881,364.354c0-0.193-0.136-0.307-0.337-0.307h-0.338v0.963h0.166v-0.349h0.181l0.175,0.349h0.178l-0.191-0.385
		C1769.816,364.578,1769.881,364.484,1769.881,364.354z M1769.537,364.512h-0.163v-0.32h0.163c0.112,0,0.179,0.057,0.179,0.159
		C1769.716,364.455,1769.646,364.512,1769.537,364.512z M1642.178,352.779v-2.556h-3.92v15.208h3.92v-9.12
		c0-1.651,1.059-2.462,2.71-2.462h2.146v-3.626h-1.833C1643.767,350.223,1642.52,350.971,1642.178,352.779z M1650.705,344.207
		c-1.34,0-2.369,1.06-2.369,2.4c0,1.31,1.028,2.369,2.369,2.369c1.341,0,2.369-1.06,2.369-2.369
		C1653.074,345.267,1652.046,344.207,1650.705,344.207z M1648.75,365.432h3.91v-15.208h-3.91V365.432z M1671.289,357.826
		c0,4.344-3.52,7.863-7.862,7.863c-1.752,0-3.34-0.574-4.615-1.545v5.752h-3.91v-19.673h3.91v1.287
		c1.274-0.97,2.863-1.544,4.615-1.544C1667.769,349.966,1671.289,353.485,1671.289,357.826z M1667.354,357.826
		c0-2.356-1.913-4.269-4.27-4.269c-2.358,0-4.271,1.913-4.271,4.269c0,2.359,1.913,4.271,4.271,4.271
		C1665.441,362.098,1667.354,360.188,1667.354,357.826z M1739.257,356.494l-2.28-0.626c-1.502-0.391-2.085-0.852-2.085-1.645
		c0-0.773,0.822-1.314,1.998-1.314c1.119,0,1.997,0.733,1.997,1.672v0.087h3.604v-0.087c0-2.76-2.25-4.615-5.602-4.615
		c-3.319,0-5.73,1.853-5.73,4.407c0,1.987,1.316,3.484,3.613,4.105l2.186,0.597c1.66,0.461,2.277,0.971,2.277,1.884
		c0,0.964-0.893,1.611-2.219,1.611c-1.383,0-2.316-0.876-2.316-2.177v-0.088h-3.825v0.088c0,3.119,2.513,5.301,6.11,5.301
		c3.466,0,5.982-2.129,5.982-5.062C1742.968,359.193,1742.323,357.311,1739.257,356.494z M1685.161,350.223h3.911v15.208h-3.911
		v-1.287c-1.273,0.971-2.863,1.545-4.614,1.545c-4.342,0-7.861-3.52-7.861-7.863c0-4.341,3.52-7.86,7.861-7.86
		c1.751,0,3.341,0.574,4.614,1.544V350.223z M1685.161,357.826L1685.161,357.826c0-2.359-1.912-4.269-4.271-4.269
		c-2.356,0-4.27,1.913-4.27,4.269c0,2.359,1.914,4.271,4.27,4.271C1683.251,362.098,1685.161,360.188,1685.161,357.826z
		 M1703.192,344.811h3.911v20.623h-3.911v-1.287c-1.273,0.971-2.862,1.545-4.614,1.545c-4.341,0-7.86-3.52-7.86-7.861
		s3.52-7.862,7.86-7.862c1.752,0,3.341,0.574,4.614,1.544V344.811z M1703.192,357.826c0-2.356-1.912-4.269-4.27-4.269
		s-4.271,1.913-4.271,4.269c0,2.359,1.91,4.271,4.271,4.271C1701.28,362.098,1703.192,360.188,1703.192,357.826z M1725.26,365.432
		h3.911v-15.208h-3.911V365.432z M1727.215,344.207c-1.341,0-2.368,1.06-2.368,2.4c0,1.31,1.027,2.369,2.368,2.369
		s2.368-1.06,2.368-2.369C1729.583,345.267,1728.556,344.207,1727.215,344.207z M1759.87,357.826c0,4.344-3.52,7.863-7.861,7.863
		s-7.861-3.52-7.861-7.863c0-4.341,3.52-7.86,7.861-7.86S1759.87,353.485,1759.87,357.826z M1756.278,357.826
		c0-2.356-1.912-4.269-4.27-4.269s-4.271,1.913-4.271,4.269c0,2.359,1.91,4.271,4.271,4.271
		C1754.366,362.098,1756.278,360.188,1756.278,357.826z M1640.176,344.811h-15.002v3.488h5.553v17.133h3.897v-17.133h5.553v-3.488
		H1640.176z M1716.04,361.267l-3.479-11.043h-4.107l5.218,15.208h4.707l5.248-15.208h-4.107L1716.04,361.267z M1765.599,352.779
		v-2.556h-3.919v15.208h3.919v-9.12c0-1.651,1.061-2.462,2.712-2.462h2.146v-3.626h-1.833
		C1767.188,350.223,1765.944,350.971,1765.599,352.779z"/>
	<circle fill="#34E0A1" cx="1602.556" cy="356.748" r="20"/>
	<path d="M1614.908,352.846l2.414-2.625h-5.352c-2.679-1.831-5.916-2.896-9.415-2.896c-3.495,0-6.721,1.068-9.396,2.896h-5.366
		l2.414,2.625c-1.479,1.35-2.407,3.294-2.407,5.453c0,4.074,3.303,7.377,7.376,7.377c1.935,0,3.698-0.746,5.015-1.967l2.364,2.574
		l2.364-2.572c1.316,1.221,3.077,1.965,5.012,1.965c4.074,0,7.381-3.303,7.381-7.377
		C1617.315,356.139,1616.388,354.193,1614.908,352.846z M1595.179,363.291c-2.757,0-4.993-2.234-4.993-4.992
		c0-2.757,2.235-4.992,4.993-4.992c2.758,0,4.992,2.235,4.992,4.992C1600.171,361.057,1597.937,363.291,1595.179,363.291z
		 M1602.558,358.154c0-3.286-2.389-6.105-5.542-7.31c1.705-0.713,3.575-1.108,5.54-1.108s3.836,0.396,5.542,1.108
		C1604.947,352.051,1602.558,354.869,1602.558,358.154z M1609.935,363.291c-2.757,0-4.992-2.234-4.992-4.992
		c0-2.757,2.235-4.992,4.992-4.992s4.992,2.235,4.992,4.992C1614.927,361.057,1612.692,363.291,1609.935,363.291z M1609.935,355.68
		c-1.446,0-2.617,1.171-2.617,2.617c0,1.445,1.17,2.617,2.617,2.617c1.446,0,2.617-1.172,2.617-2.617
		C1612.551,356.853,1611.38,355.68,1609.935,355.68z M1597.796,358.299c0,1.445-1.171,2.617-2.617,2.617s-2.617-1.172-2.617-2.617
		c0-1.446,1.171-2.616,2.617-2.616C1596.625,355.68,1597.796,356.853,1597.796,358.299z"/>
</g>
</svg>
